<svg width="216" height="132" viewBox="0 0 216 132" fill="none" xmlns="http://www.w3.org/2000/svg">
<path fill-rule="evenodd" clip-rule="evenodd" d="M47.9841 130.273C47.7026 129.372 48.2323 128.405 48.5804 127.421C48.9489 126.379 49.2402 125.374 49.552 124.445C85.748 89.1051 47.6808 0 0.345459 0C14.0444 41.6731 28.3299 70.9325 41.7571 112.545L46.9143 128.195C47.5072 130.157 47.2974 129.789 47.9836 130.273L47.9841 130.273Z" fill="#06014A"/>
<path fill-rule="evenodd" clip-rule="evenodd" d="M63.3907 82.3797L63.3157 82.8045C63.784 83.3834 75.0692 117.782 77.1353 124.127C77.6954 125.848 78.7604 128.511 79.0889 130.162C82.554 119.974 85.6455 110.653 88.6986 101.392C81.6609 97.6481 76.8679 90.2365 76.8679 81.7035C76.8679 69.3966 86.836 59.4201 99.1321 59.4201C100.288 59.4201 101.423 59.5081 102.532 59.6784C103.112 57.9589 103.704 56.2111 104.308 54.4317L112.58 29.2309C106.814 28.404 96.9086 31.8278 92.5259 34.2808C84.2789 38.8961 78.0596 45.0509 73.5371 53.8247C72.0344 56.7405 70.9075 59.7288 69.8676 63.0011C69.0636 65.5305 64.0536 81.1861 63.3907 82.3801V82.3797Z" fill="#D74629"/>
<path fill-rule="evenodd" clip-rule="evenodd" d="M47.9837 130.272C50.8432 130.515 78.4407 130.454 79.089 130.161C78.7606 128.509 77.6955 125.846 77.1351 124.126C75.069 117.78 63.7833 83.3811 63.3154 82.8026L49.5512 124.444C49.2394 125.373 48.9477 126.378 48.5796 127.42C48.2319 128.404 47.7018 129.371 47.9833 130.273L47.9837 130.272Z" fill="#F29A21"/>
<path fill-rule="evenodd" clip-rule="evenodd" d="M198.312 66.1981L197.785 66.7723L200.495 71.0154L205.193 63.5637C205.454 63.1368 205.715 62.7048 205.974 62.3043C206.26 61.862 206.459 61.4671 206.776 61.0684L211.037 61.0556C210.851 61.5594 203.732 73.2131 203.133 74.1877C202.738 74.8294 200.723 78.3249 200.436 78.5588C199.954 77.9582 199.496 77.0472 199.092 76.3833L196.414 71.9669C195.966 71.2331 195.545 70.4305 195.061 69.7445C194.767 69.9144 194.67 70.095 194.548 70.3426C195.607 71.9255 197.806 75.725 198.942 77.5975L200.526 79.9271L203.449 75.1257C203.936 74.3218 204.426 73.506 204.918 72.6931L210.906 62.8064C211.336 62.1011 212.126 60.9578 212.392 60.3064L206.374 60.2953L201.972 67.2624C201.483 68.0394 201.004 68.8484 200.491 69.5916L198.312 66.1986L198.312 66.1981Z" fill="#080349"/>
<path fill-rule="evenodd" clip-rule="evenodd" d="M185.809 74.7708C185.129 75.5717 182.563 78.9105 182.057 79.944L187.139 79.9308C191.15 74.3818 199.451 63.2506 206.394 59.6202C209.027 58.2443 212.133 57.6325 214.107 60.4668C214.425 60.9227 215.215 62.361 215.278 62.9386C215.265 61.3667 213.964 58.6494 212.311 57.6551C208.888 55.5949 203.045 58.8701 200.164 61.0132C194.374 65.322 190.612 69.2034 185.808 74.7699L185.809 74.7708Z" fill="#F37632"/>
<path fill-rule="evenodd" clip-rule="evenodd" d="M173.523 65.8558L181.605 65.8848L181.606 78.6131C181.631 78.5969 181.659 78.5452 181.667 78.561L182.333 77.4959L182.337 65.1292L174.273 65.1309L174.278 61.0189L194.158 61.0159C194.416 61.5248 195.005 62.2617 195.164 62.7321L195.522 62.4828C195.641 62.3808 195.682 62.3453 195.785 62.2369C195.626 61.9428 195.388 61.6029 195.199 61.2947C195.103 61.1389 194.975 60.9434 194.893 60.7969C194.755 60.5493 194.77 60.4366 194.675 60.2671L173.548 60.2633L173.524 65.8562L173.523 65.8558Z" fill="#080349"/>
<path fill-rule="evenodd" clip-rule="evenodd" d="M185.898 72.6017C186.965 71.6774 186.651 71.0798 186.651 69.7149C186.651 68.4363 186.649 67.1574 186.651 65.8788C187.727 65.8958 188.811 65.8834 189.887 65.8834C190.422 65.8834 190.955 65.8869 191.489 65.8912C191.951 65.8946 192.443 65.7831 192.341 65.2051C191.889 64.9934 186.889 65.121 185.925 65.1364L185.897 72.6021L185.898 72.6017Z" fill="#080349"/>
<path d="M115.101 82.1241C115.101 73.3272 108.225 66.1714 99.8002 66.1714C91.3301 66.1714 84.4988 73.3272 84.4988 82.1241C84.4988 90.9662 91.3297 98.1221 99.8002 98.1221C108.225 98.1221 115.101 90.9662 115.101 82.1241ZM90.7833 82.1241C90.7833 76.9735 94.8362 72.7347 99.8002 72.7347C104.764 72.7347 108.771 76.9735 108.771 82.1241C108.771 87.32 104.763 91.5588 99.8002 91.5588C94.8362 91.5588 90.7833 87.32 90.7833 82.1241ZM116.922 74.558V97.8941C121.021 97.8941 124.345 94.5672 124.345 90.5103V67.1285C120.246 67.1285 116.922 70.4559 116.922 74.558ZM150.029 84.8589C148.936 88.7783 145.475 91.6045 141.422 91.6045C136.413 91.6045 132.406 87.3657 132.406 82.1241C132.406 76.9282 136.413 72.689 141.422 72.689C145.293 72.689 148.617 75.2415 149.847 78.8877C153.399 78.8877 155.402 74.8312 153.217 72.0508C150.439 68.4502 146.158 66.1257 141.422 66.1257C132.998 66.1257 126.167 73.2816 126.167 82.1237C126.167 91.0115 132.998 98.1673 141.422 98.1673C146.386 98.1673 150.848 95.6148 153.627 91.7407C155.676 88.8236 153.581 84.8585 150.029 84.8585L150.029 84.8589ZM180.084 97.6209C180.084 94.3392 177.398 91.6497 174.119 91.6497H164.874V88.4137H166.559C169.883 88.4137 172.524 85.7704 172.524 82.443H164.874V77.1558C164.874 74.7856 166.832 72.8713 169.201 72.8713H174.119C177.398 72.8713 180.084 70.1822 180.084 66.9006H164.875H157.497V97.6204H164.875H180.084V97.6209Z" fill="#06014A"/>
<path d="M114.323 82.3672C114.323 73.3795 107.297 66.0678 98.69 66.0678C90.0361 66.0678 83.0568 73.3791 83.0568 82.3672C83.0568 91.4014 90.0361 98.7127 98.69 98.7127C107.297 98.7127 114.323 91.4014 114.323 82.3672V82.3672ZM89.4778 82.3672C89.4778 77.1047 93.6186 72.7737 98.6905 72.7737C103.762 72.7737 107.856 77.1047 107.856 82.3672C107.856 87.6758 103.762 92.0068 98.6905 92.0068C93.6186 92.0068 89.4778 87.6762 89.4778 82.3672ZM116.184 74.6367V98.48C120.372 98.48 123.768 95.0805 123.768 90.9357V67.0459C119.581 67.0459 116.184 70.4453 116.184 74.6367ZM150.01 85.1613C148.893 89.1661 145.357 92.0533 141.216 92.0533C136.098 92.0533 132.004 87.7223 132.004 82.3672C132.004 77.0586 136.099 72.7272 141.216 72.7272C145.171 72.7272 148.568 75.3352 149.824 79.0608C153.453 79.0608 155.5 74.9159 153.267 72.0753C150.428 68.3962 146.055 66.0217 141.216 66.0217C132.608 66.0217 125.629 73.333 125.629 82.3672C125.629 91.448 132.608 98.7592 141.216 98.7592C146.288 98.7592 150.847 96.1512 153.685 92.1933C155.779 89.2131 153.639 85.1613 150.01 85.1613H150.01ZM180.718 98.2004C180.718 94.8474 177.973 92.0999 174.623 92.0999H165.178V88.7935H166.899C170.296 88.7935 172.994 86.0924 172.994 82.6929H165.178V77.2909C165.178 74.8694 167.178 72.9133 169.598 72.9133H174.623C177.973 72.9133 180.718 70.1662 180.718 66.8132H165.178H157.64V98.2004H165.178H180.718H180.718Z" stroke="#080169" stroke-width="0.00693999" stroke-miterlimit="2.61313"/>
<path d="M103.383 104.75C103.099 105.053 102.89 105.301 102.762 105.495C102.632 105.688 102.495 105.963 102.353 106.321C102.244 106.58 102.169 106.853 102.127 107.14C102.071 107.395 102.047 107.719 102.058 108.116C102.074 108.675 102.138 109.138 102.256 109.509C102.373 109.879 102.538 110.156 102.753 110.34C102.968 110.524 103.221 110.611 103.514 110.603C103.753 110.596 103.995 110.502 104.239 110.32C104.483 110.139 104.701 109.903 104.896 109.614C105.091 109.324 105.243 109.003 105.358 108.651C105.473 108.298 105.524 107.958 105.515 107.635C105.499 107.05 105.281 106.447 104.864 105.822C104.707 105.571 104.628 105.396 104.625 105.305C104.62 105.128 104.711 104.951 104.899 104.771C105.108 104.557 105.354 104.365 105.631 104.193C105.905 104.023 106.126 103.937 106.287 103.932C106.381 103.93 106.481 103.949 106.586 103.991C106.691 104.032 106.774 104.087 106.83 104.153C106.972 104.291 107.092 104.547 107.192 104.923C107.292 105.296 107.347 105.696 107.359 106.117C107.387 107.123 107.208 108.059 106.819 108.92C106.433 109.782 105.894 110.472 105.203 110.99C104.513 111.505 103.756 111.775 102.934 111.798C102.461 111.812 101.989 111.737 101.52 111.576C101.051 111.414 100.669 111.189 100.371 110.903C99.8663 110.428 99.6044 109.793 99.5818 108.998C99.569 108.538 99.645 108.048 99.8092 107.526C99.9734 107.006 100.206 106.497 100.504 105.999C100.805 105.501 101.154 105.046 101.555 104.628C101.954 104.211 102.368 103.88 102.795 103.632C103.186 103.41 103.607 103.227 104.059 103.086C104.511 102.945 104.911 102.87 105.256 102.86C105.742 102.846 105.986 102.914 105.99 103.065C105.992 103.124 105.944 103.217 105.845 103.344C105.662 103.524 105.502 103.651 105.367 103.729C105.23 103.805 105.005 103.892 104.693 103.99C104.354 104.102 104.11 104.201 103.96 104.288C103.81 104.377 103.617 104.529 103.384 104.75H103.383ZM110.306 110.138L110.302 110.489C110.263 111.34 110.204 112.032 110.125 112.569C110.046 113.105 109.948 113.435 109.832 113.558C109.675 113.738 109.425 113.832 109.08 113.841C108.71 113.852 108.441 113.787 108.276 113.646C108.211 113.575 108.165 113.511 108.144 113.45C108.121 113.392 108.107 113.284 108.103 113.126L108.101 113.067L108.099 113.004L108.097 112.928C108.077 111.727 108.159 110.516 108.341 109.299C108.525 108.079 108.782 106.967 109.109 105.959C109.439 104.952 109.81 104.152 110.218 103.558C110.627 102.963 111.042 102.659 111.465 102.647C111.655 102.641 111.801 102.703 111.901 102.829C112 102.957 112.053 103.142 112.06 103.386C112.07 103.749 112.042 104.134 111.976 104.544C111.912 104.952 111.827 105.286 111.727 105.545C111.625 105.803 111.518 105.935 111.407 105.938C111.304 105.941 111.249 105.764 111.239 105.405L111.236 105.283L111.233 105.207C111.224 104.849 111.21 104.613 111.192 104.505C111.174 104.394 111.137 104.321 111.083 104.283C111.038 104.378 111.006 104.488 110.988 104.613C110.902 105.129 110.834 105.596 110.782 106.012C110.731 106.429 110.656 107.104 110.557 108.039C110.554 108.092 110.549 108.149 110.542 108.214C110.536 108.278 110.531 108.335 110.528 108.387L110.617 108.385C110.669 108.379 110.715 108.375 110.759 108.372C110.8 108.369 110.865 108.367 110.954 108.364C111.115 108.34 111.259 108.327 111.388 108.324C111.892 108.31 112.148 108.433 112.156 108.698C112.159 108.835 112.116 109 112.025 109.197C111.937 109.394 111.828 109.559 111.699 109.689C111.572 109.821 111.426 109.917 111.259 109.979C111.093 110.042 110.854 110.089 110.541 110.119C110.473 110.121 110.425 110.122 110.399 110.125C110.371 110.128 110.341 110.133 110.306 110.137V110.138Z" fill="#06014A"/>
<path d="M106.625 132C116.014 132 122.93 125.54 122.93 116.73C122.93 112.274 121.16 108.42 118.196 105.699C118.141 106.299 117.894 107.132 117.752 107.701C117.561 108.463 117.595 108.852 117.292 109.488C116.883 110.348 116.528 111.219 115.999 112.015C115.418 112.887 115.041 113.22 114.687 113.48C114.541 113.691 114.373 113.878 114.188 114.042C114.421 114.868 114.547 115.767 114.547 116.73C114.547 121.806 111.068 125.12 106.625 125.12C102.182 125.12 98.7035 121.806 98.7035 116.73C98.7035 115.376 98.9509 114.148 99.3983 113.074C98.8234 112.656 98.37 112.033 98.1575 111.208C97.9592 110.435 98.0419 105.041 98.0509 103.558C93.3211 106.147 90.3204 110.928 90.3204 116.73C90.3204 125.54 97.2362 132 106.625 132ZM144.868 102.047V117.695L131.916 102.047H125.084V131.413H133.216V115.765L146.167 131.413H152.999V102.047H144.868ZM164.878 124.995V119.625H177.913V113.416H164.878V108.466H179.674V102.047H156.663V131.413L175.245 131.515C179.708 131.767 182.29 131.053 180.219 124.995H164.878Z" fill="#06014A"/>
</svg>
