<svg width="24" height="18" viewBox="0 0 24 18" fill="none" xmlns="http://www.w3.org/2000/svg">
<path d="M19 8.90763C19 10.8786 18.162 12.7696 16.7 14.0956C16.413 14.3566 16.053 14.4856 15.692 14.4856C15.284 14.4856 14.878 14.3196 14.582 13.9936C14.025 13.3806 14.071 12.4316 14.685 11.8756C15.521 11.1156 16 10.0346 16 8.90763C16 7.77763 15.522 6.69763 14.69 5.94263C14.076 5.38663 14.029 4.43763 14.586 3.82363C15.142 3.20863 16.09 3.16263 16.704 3.71963C18.163 5.04163 19 6.93263 19 8.90763ZM20.514 0.441629C19.93 -0.145371 18.979 -0.147371 18.393 0.436629C17.805 1.02063 17.803 1.97063 18.387 2.55863C20.072 4.25063 21 6.50563 21 8.90763C21 11.3036 20.07 13.5566 18.382 15.2546C17.798 15.8416 17.8 16.7916 18.388 17.3756C18.68 17.6666 19.063 17.8126 19.446 17.8126C19.831 17.8126 20.217 17.6656 20.509 17.3706C22.76 15.1066 24 12.1016 24 8.90763C24 5.70763 22.762 2.70063 20.514 0.441629ZM12 7.09463C10.997 7.09463 10.188 7.90363 10.188 8.90763C10.188 9.90763 10.998 10.7206 12.001 10.7206C13.004 10.7206 13.813 9.90763 13.813 8.90763C13.813 7.90363 13.003 7.09463 12 7.09463ZM9.419 3.82163C8.862 3.20763 7.914 3.16163 7.3 3.71863C5.838 5.04463 5 6.93663 5 8.90763C5 10.8846 5.837 12.7746 7.297 14.0956C7.584 14.3556 7.944 14.4836 8.303 14.4836C8.712 14.4836 9.119 14.3176 9.416 13.9906C9.972 13.3766 9.924 12.4276 9.31 11.8716C8.478 11.1186 8 10.0386 8 8.90763C8 7.78063 8.479 6.69963 9.316 5.94063C9.93 5.38363 9.976 4.43463 9.419 3.82163ZM3 8.90763C3 6.51163 3.93 4.25863 5.618 2.56163C6.202 1.97463 6.201 1.02463 5.613 0.440629C5.027 -0.144371 4.077 -0.141371 3.492 0.445629C1.24 2.70763 0 5.71363 0 8.90763C0 12.1066 1.238 15.1136 3.486 17.3736C3.779 17.6686 4.164 17.8156 4.549 17.8156C4.932 17.8156 5.314 17.6696 5.607 17.3786C6.194 16.7946 6.196 15.8446 5.612 15.2576C3.928 13.5636 3 11.3086 3 8.90763Z" fill="#424242"/>
</svg>
