<svg width="19" height="18" viewBox="0 0 19 18" fill="none" xmlns="http://www.w3.org/2000/svg">
<path d="M18.6811 7.99535L15.8015 5.11581V1.78945C15.8015 1.188 15.3141 0.700571 14.7118 0.700571C14.1109 0.700571 13.6235 1.188 13.6235 1.78945V2.93778L11.4794 0.793654C10.4194 -0.26581 8.57633 -0.26393 7.5187 0.795572L0.318771 7.99535C-0.106257 8.42122 -0.106257 9.11031 0.318771 9.53553C0.743991 9.96129 1.43442 9.96129 1.85949 9.53553L9.05873 2.33556C9.29326 2.10226 9.70663 2.10226 9.93993 2.33487L17.1404 9.53553C17.3539 9.74843 17.6323 9.85432 17.9106 9.85432C18.1894 9.85432 18.4683 9.74832 18.6811 9.53553C19.1063 9.11035 19.1063 8.42126 18.6811 7.99535Z" fill="#424242"/>
<path d="M9.87827 4.40252C9.66909 4.19346 9.3304 4.19346 9.12183 4.40252L2.78875 10.7337C2.68877 10.8337 2.63208 10.9701 2.63208 11.1125V15.7303C2.63208 16.8139 3.51067 17.6924 4.59422 17.6924H7.72973V12.8365H11.2697V17.6924H14.4052C15.4887 17.6924 16.3673 16.8139 16.3673 15.7303V11.1125C16.3673 10.9701 16.3111 10.8337 16.2107 10.7337L9.87827 4.40252Z" fill="#424242"/>
</svg>
