<svg width="15" height="18" viewBox="0 0 15 18" fill="none" xmlns="http://www.w3.org/2000/svg">
<path fill-rule="evenodd" clip-rule="evenodd" d="M13.0528 13.256L14.2834 15.3073C14.3493 15.4177 14.3515 15.5567 14.2877 15.6686C14.2239 15.7804 14.1049 15.8499 13.9759 15.8499H0.357871C0.228858 15.8499 0.110596 15.7804 0.0467952 15.6678C-0.0170058 15.5553 -0.0155612 15.4177 0.0510956 15.3066L1.28173 13.2553C1.84938 12.3085 2.14971 11.2248 2.14971 10.121V8.32411C2.14971 6.05562 3.66346 4.13692 5.73338 3.51837V2.23183C5.73338 1.44126 6.3763 0.79834 7.16687 0.79834C7.95745 0.79834 8.60036 1.44126 8.60036 2.23183V3.51837C10.6703 4.13692 12.1841 6.05562 12.1841 8.32411V10.121C12.1841 11.2248 12.4844 12.3092 13.0528 13.256ZM7.16722 18.0007C6.17025 18.0007 5.31447 17.4115 4.91023 16.5672H9.42424C9.02 17.4115 8.16418 18.0007 7.16722 18.0007Z" fill="#424242"/>
</svg>
