<svg width="21" height="18" viewBox="0 0 21 18" fill="none" xmlns="http://www.w3.org/2000/svg">
<path fill-rule="evenodd" clip-rule="evenodd" d="M8.40553 0.0951184C8.7106 -0.0301441 9.05244 -0.031744 9.35866 0.0906571C9.66381 0.214021 9.90937 0.45073 10.0438 0.75116C10.1783 1.05159 10.1913 1.39241 10.08 1.70218L8.95235 5.16718C8.61131 5.25685 8.30951 5.45682 8.09399 5.73592C7.87847 6.01503 7.76133 6.35759 7.76083 6.71022V9.22109C7.76083 9.34217 7.80893 9.45829 7.89454 9.5439C7.98016 9.62952 8.09627 9.67761 8.21735 9.67761C8.33843 9.67761 8.45455 9.62952 8.54016 9.5439C8.62578 9.45829 8.67387 9.34217 8.67387 9.22109V6.71022C8.67387 6.52861 8.74602 6.35443 8.87444 6.22601C9.00286 6.09759 9.17704 6.02544 9.35866 6.02544C9.54027 6.02544 9.71445 6.09759 9.84287 6.22601C9.97129 6.35443 10.0434 6.52861 10.0434 6.71022C10.0434 7.36018 10.0489 7.92218 10.0537 8.41278V8.4128C10.0714 10.2183 10.0796 11.0567 9.76928 11.7531C9.50027 12.3568 8.99191 12.8539 8.04289 13.7817C7.78494 14.0339 7.49444 14.3179 7.16735 14.6446L4.52409 12.0013L5.0217 11.5037C5.0217 11.1527 5.02073 10.8306 5.01984 10.5329V10.5328C5.01506 8.93806 5.01239 8.04526 5.17149 7.18229C5.37384 6.08477 5.83786 5.03549 6.89202 2.65173L6.89203 2.65173C7.13638 2.09918 7.41245 1.47492 7.72431 0.761744C7.85615 0.459468 8.10047 0.220381 8.40553 0.0951184ZM15.9782 11.5037L16.4759 12.0013L13.8326 14.6446C13.5173 14.3319 13.2359 14.058 12.9849 13.8137L12.9849 13.8137C12.0015 12.8567 11.4833 12.3524 11.2143 11.7388C10.9145 11.0553 10.9239 10.2363 10.9438 8.50482C10.9497 7.99302 10.9565 7.40151 10.9565 6.71022C10.9565 6.52861 11.0287 6.35443 11.1571 6.22601C11.2855 6.09759 11.4597 6.02544 11.6413 6.02544C11.8229 6.02544 11.9971 6.09759 12.1255 6.22601C12.2539 6.35443 12.3261 6.52861 12.3261 6.71022V9.22109C12.3261 9.34217 12.3742 9.45829 12.4598 9.5439C12.5454 9.62952 12.6615 9.67762 12.7826 9.67762C12.9037 9.67762 13.0198 9.62952 13.1054 9.5439C13.191 9.45829 13.2391 9.34217 13.2391 9.22109V6.71022C13.2386 6.35759 13.1215 6.01503 12.906 5.73592C12.6904 5.45682 12.3886 5.25685 12.0476 5.16718L10.92 1.70218C10.8099 1.39292 10.824 1.05304 10.9592 0.753906C11.0944 0.454777 11.3402 0.219671 11.6451 0.0979599C11.95 -0.0237515 12.2901 -0.0226001 12.5942 0.101172C12.8982 0.224944 13.1425 0.461708 13.2756 0.761746C13.5894 1.47919 13.8669 2.10698 14.1125 2.66233L14.1125 2.66245L14.1125 2.66246C15.1815 5.08033 15.6434 6.12505 15.8404 7.21755C15.9903 8.04875 15.9869 8.9076 15.981 10.4199V10.4199V10.4201C15.9797 10.7483 15.9782 11.1074 15.9782 11.5037ZM0 15.1559V17.4385H6.84783L7.76087 16.5254L3.19565 11.9602L0 15.1559ZM13.2391 16.5254L17.8043 11.9602L21 15.1559V17.4385H14.1522L13.2391 16.5254Z" fill="#424242"/>
</svg>
